<svg width="40" height="40" viewBox="0 0 40 40" fill="none" xmlns="http://www.w3.org/2000/svg">
<path d="M29.1663 10.833H29.183M11.6663 3.33301H28.333C32.9354 3.33301 36.6663 7.06397 36.6663 11.6663V28.333C36.6663 32.9354 32.9354 36.6663 28.333 36.6663H11.6663C7.06397 36.6663 3.33301 32.9354 3.33301 28.333V11.6663C3.33301 7.06397 7.06397 3.33301 11.6663 3.33301ZM26.6663 18.9497C26.872 20.3368 26.6351 21.7534 25.9893 22.998C25.3434 24.2427 24.3216 25.252 23.069 25.8825C21.8165 26.5129 20.3971 26.7323 19.0127 26.5096C17.6282 26.2868 16.3493 25.6331 15.3577 24.6416C14.3662 23.6501 13.7126 22.3711 13.4898 20.9867C13.267 19.6023 13.4864 18.1828 14.1169 16.9303C14.7473 15.6778 15.7567 14.6559 17.0013 14.0101C18.246 13.3642 19.6626 13.1273 21.0497 13.333C22.4645 13.5428 23.7744 14.2021 24.7858 15.2135C25.7972 16.2249 26.4565 17.5348 26.6663 18.9497Z" stroke="white" stroke-width="3" stroke-linecap="round" stroke-linejoin="round"/>
</svg>
